<svg width="88" height="88" viewBox="0 0 88 88" fill="none" xmlns="http://www.w3.org/2000/svg">
<g clip-path="url(#clip0_50_1688)">
<rect width="88" height="88" rx="44" fill="#0A0B09"/>
<path d="M35.2177 85.3373C35.2177 86.5074 33.825 88.0619 31.625 87.6563V88L59.8125 88.0048V87.4658C57.5795 87.8996 57.0307 86.5198 57.0307 85.338C57.0307 83.8881 57.0857 79.1258 57.0857 73.2201C57.0857 69.0979 55.6777 66.4036 54.0992 65.0396C63.9002 63.9464 74.188 60.2106 74.188 43.2424C74.188 38.4189 72.4857 34.4768 69.6642 31.3871C70.118 30.2693 71.6277 25.7799 69.227 19.6976C69.227 19.6976 65.5392 18.5103 57.1407 24.2255C53.6262 23.2451 49.8615 22.7563 46.1242 22.737C42.3815 22.757 38.6195 23.2451 35.1077 24.2255C26.7037 18.5103 23.0077 19.6976 23.0077 19.6976C20.6152 25.7799 22.125 30.2693 22.5787 31.3871C19.7627 34.4768 18.0495 38.4189 18.0495 43.2424C18.0495 60.1693 28.3207 63.9575 38.0915 65.0726C36.8347 66.1767 35.6962 68.1237 35.2975 70.9782C32.7895 72.1105 26.4177 74.0596 22.4907 67.309C22.4907 67.309 20.167 63.0685 15.7532 62.7564C15.7532 62.7564 11.455 62.7007 15.4507 65.4425C15.4507 65.4425 18.3355 66.8009 20.3347 71.9029C20.3347 71.9029 22.917 80.4946 35.1572 77.825C35.1792 81.5107 35.2177 84.2882 35.2177 85.3373Z" fill="white"/>
</g>
<defs>
<clipPath id="clip0_50_1688">
<rect width="88" height="88" rx="44" fill="white"/>
</clipPath>
</defs>
</svg>
