<svg width="76" height="76" viewBox="0 0 76 76" fill="none" xmlns="http://www.w3.org/2000/svg">
<path d="M1.99515 1.51013H74.4174V73.9324H1.99515V1.51013Z" fill="#F5DE19"/>
<path d="M50.6466 58.0918C51.2637 59.3452 52.2224 60.3987 53.4122 61.1309C54.602 61.8631 55.9745 62.2442 57.3715 62.2302C60.1908 62.2302 61.9936 60.8206 61.9936 58.8677C61.9936 56.5399 60.1417 55.707 57.0379 54.3491L55.336 53.6197C50.4216 51.5272 47.1626 48.9071 47.1626 43.3668C47.1626 38.2636 51.0424 34.3761 57.1284 34.3761C59.0986 34.2338 61.067 34.6748 62.7882 35.6439C64.5094 36.6131 65.9071 38.0675 66.8071 39.8259L61.4867 43.2271C61.1401 42.3553 60.5367 41.6094 59.7565 41.0883C58.9763 40.5672 58.0562 40.2956 57.1181 40.3096C56.7088 40.2686 56.2954 40.3133 55.9044 40.4409C55.5134 40.5685 55.1532 40.7762 54.8468 41.0506C54.5405 41.3251 54.2946 41.6604 54.125 42.0351C53.9554 42.4099 53.8657 42.8158 53.8616 43.2271C53.8616 45.2679 55.1264 46.0956 58.0466 47.3655L59.7485 48.0949C65.532 50.5754 68.8013 53.1024 68.8013 58.785C68.8013 64.9124 63.9878 68.2697 57.5241 68.2697C55.0057 68.4302 52.4946 67.8584 50.2939 66.6233C48.0932 65.3883 46.2969 63.5427 45.1218 61.3094L50.6466 58.0918ZM26.605 58.6815C27.6733 60.5774 28.6458 62.1811 30.984 62.1811C33.2187 62.1811 34.631 61.3068 34.631 57.9056V34.7641H41.4361V57.9961C41.4361 65.0417 37.2977 68.249 31.2737 68.249C29.1443 68.3654 27.0296 67.8347 25.2075 66.7268C23.3854 65.6189 21.9412 63.9855 21.0647 62.0414L26.605 58.6815Z" fill="black"/>
</svg>
